<svg width="192" height="419" viewBox="0 0 192 419" fill="none" xmlns="http://www.w3.org/2000/svg">
<path fill-rule="evenodd" clip-rule="evenodd" d="M79 0.651566C62.118 3.99657 48.746 9.86857 35.292 19.8446C15.191 34.7476 2.77998 58.1916 1.33898 83.9786L0.750977 94.5006L2.47198 101.501C8.18198 124.729 17.127 139.835 31.097 149.843L38.994 155.501L38.467 159.001C37.426 165.901 37.071 169.668 36.391 181.001C35.601 194.197 35.319 197.899 35.08 198.251C34.986 198.388 34.701 201.876 34.447 206.001C34.192 210.126 33.532 218.226 32.98 224.001C32.428 229.776 31.788 237.201 31.557 240.501C31.327 243.801 30.596 253.026 29.934 261.001C28.56 277.54 28.119 283.613 27.571 293.501C27.358 297.351 26.904 303.651 26.564 307.501C26.223 311.351 25.728 317.426 25.463 321.001C25.199 324.576 24.746 330.426 24.457 334.001C23.746 342.802 22.754 358.083 22.379 366.001C22.209 369.576 21.813 376.776 21.498 382.001C20.728 394.785 20.9 415.307 21.785 416.159C23.734 418.035 35.538 418.621 67.201 418.416C86.276 418.292 102.329 417.916 102.873 417.58C103.417 417.243 104.163 417.456 104.532 418.053C104.901 418.649 105.944 418.84 106.851 418.476C107.758 418.112 114.35 417.655 121.5 417.46C162.681 416.338 182.285 414.878 188.25 412.488C189.213 412.102 190 410.962 190 409.953C190 408.944 190.433 407.852 190.962 407.525C191.561 407.154 191.578 406.022 191.008 404.523C190.505 403.199 189.851 399.952 189.556 397.308C189.261 394.664 188.539 390.251 187.951 387.501C187.363 384.751 186.864 380.926 186.842 379.001C186.819 377.076 186.439 374.824 185.997 373.997C185.555 373.169 184.953 369.704 184.661 366.295C184.369 362.887 182.757 351.864 181.079 341.8C178.392 325.674 172.285 285.485 169.942 268.501C169.487 265.201 168.661 260.026 168.107 257.001C167.553 253.976 166.839 249.476 166.521 247.001C166.202 244.526 165.747 241.601 165.509 240.501C165.272 239.401 164.839 237.376 164.548 236.001C164.256 234.626 162.429 223.601 160.488 211.501C156.649 187.582 155.101 180.101 151.225 166.75L148.684 158L159.092 147.25C170.685 135.277 173.89 130.048 177.116 117.84L179.319 109.501L179.278 97.0006C179.232 82.6236 177.649 74.1766 172.561 61.1576C168.572 50.9486 166.484 47.1416 159.752 37.8096C154.567 30.6216 143.1 19.4366 138.415 16.9966C136.835 16.1736 133.085 14.0386 130.081 12.2516C123.479 8.32357 116.023 5.44857 106 2.96757C98.265 1.05257 83.407 -0.221434 79 0.651566Z" fill="black"/>
</svg>
