<svg width="24" height="24" viewBox="0 0 24 24" fill="none" xmlns="http://www.w3.org/2000/svg">
<path d="M12.8179 0.0658077C13.3864 0.187939 13.433 0.202189 13.8293 0.375583C13.9671 0.435888 14.0837 0.485221 14.0883 0.485221C14.093 0.485221 14.2112 0.548355 14.3512 0.625526C14.8656 0.909222 15.2553 1.20413 15.6384 1.5996C16.246 2.22672 16.4666 2.57595 16.7215 3.31403C16.9192 3.88661 16.9701 4.08889 17.0621 4.66871C17.0923 4.85895 17.077 5.75862 17.0404 5.94461C17.0282 6.0065 17.0096 6.10294 16.999 6.15892C16.9079 6.64078 16.543 7.52247 16.2756 7.90693C16.2085 8.00339 16.0826 8.18476 15.9958 8.30997C15.6909 8.74996 15.1858 9.21901 14.6877 9.52467C14.5669 9.59882 14.468 9.67127 14.468 9.68567C14.468 9.70008 14.4864 9.77918 14.5089 9.86145C14.5314 9.94372 14.5712 10.1219 14.5973 10.2575C14.6234 10.393 14.6532 10.5232 14.6635 10.5468C14.6738 10.5704 14.6968 10.662 14.7146 10.7504C14.7324 10.8388 14.766 10.9979 14.7893 11.104C14.8125 11.2101 14.8426 11.3499 14.8561 11.4147C14.8696 11.4795 14.8939 11.569 14.9101 11.6134C14.9263 11.6578 14.9395 11.7181 14.9395 11.7472C14.9395 11.7764 14.9584 11.8558 14.9816 11.9236C15.0048 11.9914 15.034 12.1126 15.0465 12.1929C15.0591 12.2731 15.0777 12.3551 15.088 12.375C15.0983 12.3949 15.1183 12.4787 15.1323 12.5612C15.1464 12.6438 15.1662 12.7402 15.1765 12.7756C15.1867 12.8109 15.2247 12.9604 15.261 13.1077C15.2972 13.2551 15.3501 13.4654 15.3787 13.5752C15.4375 13.8019 15.5055 14.1095 15.5524 14.3614C15.57 14.4557 15.5932 14.5521 15.604 14.5757C15.6148 14.5993 15.6332 14.6716 15.645 14.7364C15.6567 14.8013 15.6943 14.9797 15.7285 15.1329C15.7627 15.2861 15.8165 15.5369 15.848 15.6901C15.9207 16.0435 15.9977 16.3912 16.0756 16.7187C16.1092 16.8602 16.1575 17.082 16.1828 17.2116C16.2275 17.4403 16.34 17.9445 16.4195 18.2724C16.4409 18.3608 16.4823 18.5344 16.5115 18.6582C16.5407 18.782 16.5894 18.9809 16.6197 19.1002C16.65 19.2195 16.6946 19.422 16.719 19.5502C16.7678 19.8071 16.8051 19.9746 16.8712 20.2333C16.933 20.475 16.9475 20.5375 16.9756 20.6834C16.9892 20.7541 17.0436 20.9893 17.0966 21.206C17.2184 21.7054 17.2751 21.952 17.2866 22.0335C17.2916 22.0688 17.3295 22.2371 17.3708 22.4074C17.4121 22.5777 17.45 22.753 17.455 22.7968C17.4601 22.8406 17.4802 22.9571 17.4997 23.0555L17.5353 23.2345L17.4495 23.3246C17.3463 23.4331 17.2395 23.5013 17.1725 23.5014C17.1455 23.5014 17.096 23.5156 17.0626 23.5328C16.9955 23.5675 16.9037 23.6027 16.6332 23.6975C16.5335 23.7324 16.4417 23.7694 16.4294 23.7797C16.417 23.7899 16.3588 23.8098 16.3 23.8238C16.2413 23.8378 16.116 23.8713 16.0217 23.8983C15.7393 23.9792 15.1434 24.0089 14.9889 23.9497C14.9558 23.9371 14.8854 23.9217 14.8323 23.9156C14.7793 23.9094 14.6973 23.8867 14.6502 23.865C14.603 23.8433 14.5305 23.8202 14.4891 23.8135C14.4476 23.8068 14.3801 23.7836 14.3391 23.7617C14.298 23.7399 14.2259 23.7097 14.1787 23.6947C14.1316 23.6796 14.0821 23.6587 14.0688 23.6482C14.0555 23.6377 13.9784 23.5956 13.8974 23.5547C13.8164 23.5138 13.7356 23.4721 13.718 23.4622C13.5686 23.3784 13.3685 23.2984 13.0108 23.1794C12.7174 23.0819 12.5934 23.0534 12.4 23.039C12.3057 23.0319 12.1514 23.0197 12.0571 23.0117C11.8753 22.9964 11.5499 23.0289 11.473 23.0701C11.4481 23.0834 11.4023 23.0943 11.3713 23.0943C11.3403 23.0943 11.2987 23.1029 11.2788 23.1134C11.259 23.1239 11.1994 23.1383 11.1463 23.1455C10.9769 23.1683 10.4009 23.3674 10.2141 23.4678C10.0314 23.566 9.68864 23.7019 9.23901 23.8546C9.04483 23.9205 8.90643 23.9509 8.7354 23.9654C8.66468 23.9714 8.57118 23.984 8.52763 23.9935C8.48408 24.003 8.40211 24.002 8.34547 23.9913C8.28883 23.9807 8.16561 23.9756 8.07161 23.98C7.97145 23.9846 7.85615 23.9762 7.79302 23.9595C7.73378 23.9439 7.61855 23.9255 7.53695 23.9186C7.45536 23.9117 7.3565 23.8927 7.31728 23.8763C7.27807 23.8599 7.24598 23.8528 7.24598 23.8604C7.24598 23.8681 7.23441 23.8628 7.22027 23.8486C7.20612 23.8345 7.16513 23.8228 7.12919 23.8226C7.09323 23.8225 7.00571 23.8041 6.93467 23.7819C6.86362 23.7596 6.77107 23.7359 6.72898 23.7292C6.68689 23.7225 6.60717 23.6976 6.55181 23.6739C6.46172 23.6353 6.4536 23.6262 6.47428 23.5876C6.48698 23.5638 6.51598 23.4021 6.53872 23.2283C6.5867 22.8612 6.70579 22.0711 6.72034 22.0233C6.72583 22.0053 6.77452 21.7302 6.82856 21.412C6.88263 21.0938 6.93576 20.7948 6.94667 20.7477C6.95755 20.7005 6.99602 20.5028 7.03213 20.3083C7.06824 20.1139 7.11151 19.8872 7.12829 19.8047C7.14509 19.7222 7.18939 19.4859 7.22678 19.2797C7.31846 18.7738 7.33679 18.6781 7.41344 18.3046C7.44974 18.1278 7.50958 17.8192 7.54639 17.6188C7.58323 17.4184 7.62794 17.1918 7.64572 17.1152C7.66353 17.0386 7.69607 16.8698 7.71803 16.7402C7.75296 16.5339 7.81074 16.2054 7.86689 15.8937C7.87645 15.8406 7.89952 15.7201 7.91819 15.6258C7.93685 15.5315 7.96628 15.3531 7.98355 15.2293C8.00085 15.1056 8.03047 14.9368 8.04939 14.8543C8.06833 14.7718 8.10723 14.5693 8.13584 14.4043C8.19865 14.0422 8.28307 13.5877 8.33088 13.3542C8.35017 13.2599 8.3737 13.1297 8.38312 13.0649C8.40972 12.8823 8.46224 12.6019 8.50961 12.3898C8.53329 12.2837 8.56721 12.1101 8.58502 12.0041C8.60281 11.898 8.63671 11.7162 8.66037 11.6002C8.68403 11.4842 8.72367 11.2768 8.74845 11.1394C8.79099 10.9038 8.85804 10.5445 8.8951 10.3539C8.97055 9.96566 9.02573 9.62676 9.01714 9.60435C9.01146 9.58952 8.90305 9.51224 8.77622 9.43263C8.52774 9.27663 8.10631 8.91823 7.92567 8.70922C7.86419 8.63809 7.77398 8.53392 7.72519 8.47773C7.63385 8.37251 7.50315 8.1911 7.50315 8.16956C7.50315 8.16287 7.47096 8.11157 7.43161 8.05555C7.39227 7.99955 7.31876 7.87656 7.26827 7.78227C7.21778 7.68798 7.15484 7.58185 7.12842 7.54643C7.00646 7.38296 6.86347 7.03347 6.77775 6.68932C6.72486 6.4769 6.60307 5.82115 6.60307 5.74874C6.60307 5.71936 6.61272 5.68938 6.6245 5.68209C6.65468 5.66345 6.65118 5.62851 6.61914 5.62854C6.57753 5.62856 6.59559 4.99516 6.64786 4.62129C6.79232 3.58826 7.08892 2.88474 7.73573 2.04096C7.92696 1.79151 8.26774 1.42477 8.43811 1.28513C8.48374 1.24771 8.5674 1.17785 8.62402 1.12989C8.68062 1.08195 8.74813 1.03178 8.77404 1.01845C8.79992 1.0051 8.84041 0.976856 8.86398 0.95564C8.90438 0.919294 9.03204 0.843023 9.3033 0.69316C9.36813 0.657328 9.45715 0.605531 9.5011 0.578057C9.54508 0.550562 9.58848 0.528361 9.59754 0.528682C9.60663 0.529025 9.67191 0.500438 9.74263 0.465163C10.163 0.255488 10.8385 0.059635 11.1892 0.045791C11.2894 0.0418263 11.3858 0.0334685 11.4035 0.0272108C11.4835 -0.00107733 11.5746 -0.00431345 12.0571 0.00400154C12.5015 0.0116522 12.605 0.0200752 12.8179 0.0658077Z" fill="#DDC9FE"/>
</svg>
